<?xml version="1.0" encoding="UTF-8"?>
<svg id="uuid-42acfc27-0d5b-4421-9068-8ea9327fd1d0" data-name="Layer 2" xmlns="http://www.w3.org/2000/svg" viewBox="0 0 788.31 385.06">
  <defs>
    <style>
      .uuid-dd52acce-d6a7-42a1-8b6e-f84f26d39059 {
        fill: #525050;
      }
    </style>
  </defs>
  <g id="uuid-9ba0c513-14e3-4108-8faf-45e807c07119" data-name="Layer 1">
    <g>
      <g>
        <path class="uuid-dd52acce-d6a7-42a1-8b6e-f84f26d39059" d="m483.04,42.06c0-.39-.02-.77-.03-1.16,0-.16,0-.32-.01-.48,0-.02,0-.05,0-.07,0,0,0,0,0,0,0-.05,0-.1,0-.15,0-.12-.02-.23-.03-.35-.04-.74-.1-1.48-.17-2.21-.01-.12-.01-.23-.03-.35-.01-.1-.03-.2-.04-.31,0-.05-.02-.1-.02-.16-.06-.45-.12-.91-.2-1.36-.03-.19-.06-.37-.09-.56-.08-.45-.17-.89-.26-1.34-.04-.18-.07-.37-.11-.55-.1-.44-.2-.87-.31-1.31-.05-.19-.09-.37-.14-.56-.11-.42-.24-.84-.36-1.26-.06-.19-.11-.38-.17-.57-.13-.4-.27-.8-.41-1.2-.07-.2-.14-.4-.21-.59-.14-.38-.29-.76-.44-1.14-.08-.21-.16-.42-.25-.62-.15-.36-.31-.71-.47-1.07-.1-.22-.19-.44-.3-.65-.16-.34-.33-.66-.49-.99-.12-.23-.23-.46-.35-.69-.16-.31-.34-.62-.51-.92-.13-.24-.27-.48-.4-.71-.17-.29-.35-.57-.53-.86-.15-.24-.3-.49-.46-.73-.18-.27-.36-.54-.54-.8-.17-.25-.33-.49-.51-.73-.18-.26-.37-.51-.56-.76-.18-.24-.36-.49-.55-.73-.19-.24-.39-.48-.58-.72-.2-.24-.39-.48-.59-.72-.2-.24-.41-.46-.62-.69-.2-.23-.4-.46-.61-.68-.22-.24-.45-.46-.68-.69-.2-.21-.41-.42-.61-.62-.24-.24-.49-.47-.74-.7-.17-.16-.33-.32-.51-.48-.03-.03-.07-.06-.1-.08-.19-.17-.39-.33-.58-.5-.22-.19-.44-.39-.67-.58-.04-.03-.08-.06-.11-.09-.03-.03-.06-.05-.1-.07-.28-.23-.56-.44-.84-.66-4.01-3.16-8.58-5.53-13.55-7.01-.18-.05-.35-.11-.53-.16-.34-.1-.69-.19-1.03-.28-.56-.15-1.12-.28-1.69-.4-.08-.02-.15-.04-.23-.05-.09-.02-.17-.03-.26-.05-1.37-.28-2.76-.5-4.17-.64-1.32-.14-2.65-.21-3.97-.21-.11,0-.21,0-.32,0-.01,0-.02,0-.03,0,0,0-.01,0-.02,0-.19,0-.37.01-.55.02,0,0-.02,0-.02,0-.05,0-.09,0-.14,0-.08,0-.15,0-.23,0-.01,0-.02,0-.04,0-.41,0-.81.01-1.21.03-.04,0-.07,0-.11,0-.27.02-.54.04-.82.06-.06,0-.11,0-.17.01-.68.05-1.36.12-2.03.21-.05,0-.11.01-.16.02-.69.09-1.38.2-2.07.32-.02,0-.04,0-.07.01-3.59.66-7.01,1.77-10.22,3.28-.04.02-.08.04-.11.06-.58.28-1.16.57-1.73.87-.08.04-.15.08-.23.12-.54.29-1.07.59-1.59.9-.08.05-.16.1-.25.15-.52.32-1.04.64-1.54.98-.07.05-.14.09-.2.14-.54.37-1.07.74-1.6,1.13-.03.02-.05.04-.08.06-1.62,1.22-3.15,2.54-4.58,3.97-.14.12-.27.24-.41.36-15.93,14.44-33.38,25.25-56.49,19.71-1.59-.38-3.12-.86-4.62-1.38-4.18-1.56-8.44-3.67-12.81-6.32-2.09-1.33-4.14-2.74-6.17-4.22-.91-.67-1.83-1.29-2.76-1.87-4.72-3.41-10.5-5.45-16.77-5.45-.73,0-1.44.06-2.16.11,0,0-.02,0-.02,0-.56.04-1.11.1-1.65.18-.59.07-1.17.16-1.75.27-.14.03-.28.06-.42.09-.83.17-1.65.38-2.46.63-.05.01-.09.03-.14.04-.75.24-1.5.51-2.23.82-.26.1-.51.22-.76.33-.41.19-.82.38-1.23.59-9.39,4.71-15.85,14.4-15.85,25.62,0,.07,0,.14,0,.21,0,.07,0,.14,0,.21,0,11.22,6.46,20.91,15.85,25.62.4.21.81.4,1.23.59.25.11.5.22.76.33.73.31,1.48.58,2.23.82.05.01.09.03.14.04.81.25,1.63.46,2.46.63.14.03.28.06.42.09.58.11,1.16.2,1.75.27.55.07,1.1.13,1.65.18,0,0,.02,0,.02,0,.71.05,1.43.11,2.16.11,6.27,0,12.05-2.03,16.77-5.45.93-.58,1.85-1.2,2.76-1.87,2.03-1.49,4.08-2.9,6.17-4.22,4.37-2.66,8.63-4.77,12.81-6.32,1.51-.52,3.04-1,4.62-1.38,23.12-5.54,40.57,5.26,56.49,19.71.14.12.27.24.41.36,1.43,1.43,2.96,2.76,4.58,3.97.03.02.05.04.08.06.52.39,1.05.77,1.6,1.13.07.05.14.09.2.14.51.34,1.02.67,1.54.98.08.05.16.1.25.15.52.31,1.05.61,1.59.9.08.04.15.08.23.12.57.3,1.15.59,1.74.87.04.02.07.04.11.05,3.21,1.51,6.63,2.62,10.22,3.28.02,0,.04,0,.07.01.68.12,1.37.23,2.07.32.05,0,.11.01.16.02.67.09,1.35.16,2.03.21.06,0,.11,0,.17.01.27.02.54.05.82.06.04,0,.07,0,.11,0,.4.02.81.03,1.21.03.01,0,.02,0,.04,0,.08,0,.15,0,.23,0,.05,0,.09,0,.14,0,0,0,.02,0,.02,0,.18,0,.36.01.55.02,0,0,.01,0,.02,0,.01,0,.02,0,.03,0,.11,0,.21,0,.32,0,1.33,0,2.65-.07,3.97-.21,1.41-.14,2.8-.36,4.17-.64.09-.02.17-.03.26-.05.08-.02.15-.04.23-.05.57-.12,1.13-.26,1.69-.4.35-.09.69-.18,1.03-.28.18-.05.36-.11.53-.16,4.97-1.48,9.54-3.86,13.55-7.01.28-.22.57-.43.84-.66.03-.03.06-.05.1-.07.04-.03.08-.06.11-.09.23-.19.44-.39.67-.58.19-.17.39-.33.58-.5.03-.03.07-.06.1-.08.17-.16.34-.32.51-.48.25-.23.5-.46.74-.7.21-.2.41-.41.61-.62.23-.23.45-.46.68-.69.21-.22.41-.45.61-.68.21-.23.42-.46.62-.69.2-.24.4-.48.59-.72.2-.24.39-.47.58-.72.19-.24.37-.49.55-.73.19-.25.38-.5.56-.76.17-.24.34-.49.51-.73.18-.27.37-.53.54-.8.16-.24.31-.49.46-.73.18-.28.36-.57.53-.86.14-.24.27-.47.4-.71.17-.31.35-.61.51-.92.12-.23.23-.46.35-.69.17-.33.34-.66.49-.99.1-.22.2-.44.3-.65.16-.35.32-.71.47-1.07.09-.21.17-.42.25-.62.15-.38.3-.76.44-1.14.07-.2.14-.4.21-.59.14-.4.28-.8.41-1.2.06-.19.12-.38.17-.57.13-.42.25-.84.36-1.26.05-.18.09-.37.14-.56.11-.43.22-.87.31-1.31.04-.18.07-.37.11-.55.09-.44.18-.89.26-1.34.03-.19.06-.37.09-.56.07-.45.14-.9.2-1.36,0-.05.02-.1.02-.16.01-.1.03-.2.04-.31.01-.12.02-.23.03-.35.08-.73.14-1.47.17-2.21,0-.12.02-.23.03-.35,0-.05,0-.1,0-.15,0,0,0,0,0,0,0-.02,0-.05,0-.07,0-.16,0-.32.01-.48.01-.39.03-.77.03-1.16Z"/>
        <path class="uuid-dd52acce-d6a7-42a1-8b6e-f84f26d39059" d="m329.91,113.12c0-.34.02-.68.03-1.02,0-.14,0-.28.01-.42,0-.02,0-.04,0-.06,0,0,0,0,0,0,0-.04,0-.09,0-.13,0-.1.02-.21.02-.31.03-.65.09-1.3.15-1.94.01-.1.01-.21.02-.31.01-.09.02-.18.03-.27,0-.05.01-.09.02-.14.05-.4.11-.79.17-1.19.03-.16.05-.33.08-.49.07-.39.14-.78.22-1.17.03-.16.06-.32.1-.48.08-.38.18-.77.27-1.15.04-.16.08-.33.12-.49.1-.37.21-.74.32-1.1.05-.17.1-.34.15-.5.11-.35.23-.71.36-1.06.06-.17.12-.35.18-.52.12-.34.26-.67.39-1,.07-.18.14-.37.22-.55.13-.32.27-.63.41-.94.09-.19.17-.38.26-.57.14-.29.29-.58.43-.87.1-.2.2-.4.31-.6.14-.27.3-.54.45-.81.12-.21.23-.42.35-.63.15-.25.31-.5.46-.75.13-.21.26-.43.4-.64.15-.24.32-.47.48-.7.15-.21.29-.43.44-.64.16-.22.33-.44.49-.66.16-.21.32-.43.48-.64.17-.21.34-.42.51-.63.17-.21.34-.42.52-.63.18-.21.36-.41.54-.61.18-.2.35-.4.54-.6.19-.21.39-.41.59-.61.18-.18.36-.37.54-.55.21-.21.43-.41.65-.61.15-.14.29-.28.45-.42.03-.03.06-.05.09-.07.17-.15.34-.29.51-.44.2-.17.39-.34.58-.51.03-.03.07-.05.1-.08.03-.02.06-.04.08-.07.24-.2.49-.39.74-.58,3.52-2.77,7.53-4.85,11.89-6.15.16-.05.31-.1.47-.14.3-.09.6-.16.91-.24.49-.13.98-.24,1.48-.35.07-.01.13-.03.2-.05.07-.02.15-.03.23-.05,1.2-.25,2.42-.44,3.66-.56,1.16-.13,2.32-.18,3.48-.18.09,0,.19,0,.28,0,0,0,.02,0,.03,0,0,0,.01,0,.02,0,.16,0,.32.01.48.01,0,0,.01,0,.02,0,.04,0,.08,0,.12,0,.07,0,.13,0,.2,0,.01,0,.02,0,.03,0,.36,0,.71.01,1.06.03.03,0,.06,0,.1,0,.24.01.48.04.72.06.05,0,.1,0,.15.01.6.05,1.19.11,1.78.18.05,0,.1.01.14.02.61.08,1.21.17,1.81.28.02,0,.04,0,.06.01,3.15.58,6.15,1.56,8.96,2.88.03.02.07.03.1.05.51.24,1.02.5,1.52.76.07.04.13.07.2.11.47.25.93.52,1.39.79.07.04.14.09.22.13.46.28.91.57,1.35.86.06.04.12.08.18.12.47.32.94.65,1.4.99.02.02.05.03.07.05,1.42,1.07,2.77,2.23,4.02,3.48.12.11.24.21.36.31,13.97,12.67,29.28,22.15,49.55,17.29,1.39-.33,2.73-.76,4.06-1.21,3.67-1.37,7.4-3.22,11.23-5.55,1.83-1.16,3.63-2.4,5.41-3.7.8-.59,1.61-1.13,2.42-1.64,4.14-2.99,9.21-4.78,14.71-4.78.64,0,1.27.05,1.89.1,0,0,.01,0,.02,0,.49.04.97.09,1.45.15.52.06,1.03.14,1.54.23.12.02.24.05.37.08.73.15,1.45.33,2.16.55.04.01.08.03.12.04.66.21,1.31.45,1.96.72.22.09.44.19.66.29.36.16.72.33,1.07.52,8.24,4.13,13.91,12.63,13.91,22.47,0,.06,0,.12,0,.18,0,.06,0,.12,0,.18,0,9.84-5.67,18.34-13.91,22.47-.35.18-.71.35-1.07.52-.22.1-.44.2-.66.29-.64.27-1.3.51-1.96.72-.04.01-.08.03-.12.04-.71.22-1.43.41-2.16.55-.12.03-.24.05-.37.08-.51.1-1.02.17-1.54.23-.48.06-.96.12-1.45.15,0,0-.01,0-.02,0-.63.05-1.25.1-1.89.1-5.5,0-10.57-1.78-14.71-4.78-.81-.51-1.62-1.05-2.42-1.64-1.78-1.3-3.57-2.54-5.41-3.7-3.83-2.33-7.57-4.18-11.23-5.55-1.32-.46-2.66-.88-4.06-1.21-20.28-4.86-35.58,4.62-49.55,17.29-.12.11-.24.21-.36.31-1.25,1.26-2.6,2.42-4.02,3.48-.02.02-.05.03-.07.05-.46.34-.92.67-1.4.99-.06.04-.12.08-.18.12-.44.3-.9.58-1.35.86-.07.04-.14.09-.22.13-.46.27-.92.54-1.39.79-.07.04-.13.07-.2.11-.5.27-1.01.52-1.52.77-.03.02-.06.03-.1.05-2.81,1.32-5.82,2.3-8.96,2.88-.02,0-.04,0-.06.01-.6.11-1.2.2-1.81.28-.05,0-.1.01-.14.02-.59.08-1.19.14-1.78.18-.05,0-.1,0-.15.01-.24.02-.48.04-.72.06-.03,0-.06,0-.1,0-.35.02-.71.02-1.06.03-.01,0-.02,0-.03,0-.07,0-.13,0-.2,0-.04,0-.08,0-.12,0,0,0-.01,0-.02,0-.16,0-.32.01-.48.01,0,0-.01,0-.02,0,0,0-.02,0-.03,0-.09,0-.19,0-.28,0-1.16,0-2.32-.06-3.48-.18-1.24-.13-2.46-.32-3.66-.56-.08-.02-.15-.03-.23-.05-.07-.01-.13-.03-.2-.05-.5-.11-.99-.22-1.48-.35-.3-.08-.61-.16-.91-.24-.16-.05-.31-.1-.47-.14-4.36-1.3-8.37-3.39-11.89-6.15-.25-.19-.5-.38-.74-.58-.03-.02-.06-.04-.08-.07-.03-.03-.07-.05-.1-.08-.2-.17-.39-.34-.58-.51-.17-.15-.34-.29-.51-.44-.03-.03-.06-.05-.09-.07-.15-.14-.3-.28-.45-.42-.22-.2-.44-.41-.65-.61-.18-.18-.36-.36-.54-.55-.2-.2-.4-.4-.59-.61-.18-.19-.36-.4-.54-.6-.18-.2-.36-.4-.54-.61-.18-.21-.35-.42-.52-.63-.17-.21-.34-.42-.51-.63-.17-.21-.32-.43-.48-.64-.17-.22-.33-.44-.49-.66-.15-.21-.3-.43-.44-.64-.16-.23-.32-.47-.48-.7-.14-.21-.27-.43-.4-.64-.16-.25-.31-.5-.46-.75-.12-.21-.24-.42-.35-.63-.15-.27-.3-.54-.45-.81-.11-.2-.21-.4-.31-.6-.15-.29-.29-.58-.43-.87-.09-.19-.17-.38-.26-.57-.14-.31-.28-.62-.41-.94-.08-.18-.15-.37-.22-.55-.13-.33-.27-.66-.39-1-.06-.17-.12-.35-.18-.52-.12-.35-.24-.7-.36-1.06-.05-.17-.1-.34-.15-.5-.11-.37-.22-.73-.32-1.1-.04-.16-.08-.33-.12-.49-.1-.38-.19-.76-.27-1.15-.04-.16-.07-.32-.1-.48-.08-.39-.16-.78-.22-1.17-.03-.16-.05-.33-.08-.49-.06-.39-.12-.79-.17-1.19,0-.05-.01-.09-.02-.14-.01-.09-.02-.18-.03-.27-.01-.1-.01-.21-.02-.31-.07-.64-.12-1.29-.15-1.94,0-.1-.02-.21-.02-.31,0-.04,0-.09,0-.13,0,0,0,0,0,0,0-.02,0-.04,0-.06,0-.14,0-.28-.01-.42,0-.34-.03-.68-.03-1.02Z"/>
      </g>
      <g>
        <path class="uuid-dd52acce-d6a7-42a1-8b6e-f84f26d39059" d="m103.18,348.47c0-1.17.59-1.76,1.77-1.76h17.25c1.12,0,1.76.59,1.76,1.76v1.07c0,1.12-.64,1.76-1.76,1.76h-13.78v12.39h11.43c1.17,0,1.76.64,1.76,1.76v1.07c0,1.17-.59,1.76-1.76,1.76h-11.43v14.37c0,1.17-.59,1.76-1.76,1.76h-1.71c-1.18,0-1.77-.59-1.77-1.76v-34.19Z"/>
        <path class="uuid-dd52acce-d6a7-42a1-8b6e-f84f26d39059" d="m168.51,346.06c11.22,0,19.34,8.39,19.34,19.23s-8.12,19.76-19.34,19.76-19.39-8.65-19.39-19.76,8.18-19.23,19.39-19.23Zm0,34.14c8.01,0,13.89-6.46,13.89-14.9s-5.88-14.37-13.89-14.37-13.94,6.2-13.94,14.37,5.93,14.9,13.94,14.9Z"/>
        <path class="uuid-dd52acce-d6a7-42a1-8b6e-f84f26d39059" d="m215.93,348.47c0-1.17.64-1.76,1.76-1.76h1.76c1.12,0,1.71.59,1.71,1.76v22.54c0,5.77,3.79,9.19,9.56,9.19s9.56-3.42,9.56-9.24v-22.49c0-1.17.64-1.76,1.76-1.76h1.77c1.12,0,1.76.59,1.76,1.76v22.6c0,8.39-5.99,14-14.8,14s-14.85-5.61-14.85-14v-22.6Z"/>
        <path class="uuid-dd52acce-d6a7-42a1-8b6e-f84f26d39059" d="m276.07,348.47c0-1.17.59-1.76,1.77-1.76h2.03c1.02,0,1.6.32,2.14,1.17l16.08,23.34c1.33,2.03,3.1,5.45,3.1,5.45h.11s-.32-3.37-.32-5.45v-22.76c0-1.17.64-1.76,1.76-1.76h1.71c1.17,0,1.76.59,1.76,1.76v34.19c0,1.17-.59,1.76-1.76,1.76h-2.03c-.96,0-1.6-.32-2.09-1.17l-16.13-23.29c-1.34-2.08-3.1-5.5-3.1-5.5h-.11s.32,3.37.32,5.5v22.7c0,1.17-.59,1.76-1.76,1.76h-1.71c-1.18,0-1.77-.59-1.77-1.76v-34.19Z"/>
        <path class="uuid-dd52acce-d6a7-42a1-8b6e-f84f26d39059" d="m337.16,348.47c0-1.17.59-1.76,1.77-1.76h10.73c11.49,0,19.13,6.89,19.13,18.8s-7.64,18.91-19.13,18.91h-10.73c-1.18,0-1.77-.59-1.77-1.76v-34.19Zm12.13,31.36c8.49,0,14.04-5.02,14.04-14.32s-5.6-14.21-14.04-14.21h-6.89v28.53h6.89Z"/>
        <path class="uuid-dd52acce-d6a7-42a1-8b6e-f84f26d39059" d="m405.64,348.15c.32-1.02.96-1.44,1.98-1.44h2.56c.96,0,1.66.43,1.98,1.44l12.39,34.24c.42,1.23-.17,2.03-1.45,2.03h-1.82c-1.02,0-1.66-.48-1.98-1.44l-3.36-9.4h-14.21l-3.31,9.4c-.27.96-.96,1.44-1.93,1.44h-1.82c-1.33,0-1.87-.8-1.44-2.03l12.39-34.24Zm8.92,21.05l-4.16-11.97c-.64-1.92-1.45-5.34-1.45-5.34h-.11s-.85,3.42-1.5,5.34l-4.22,11.97h11.43Z"/>
        <path class="uuid-dd52acce-d6a7-42a1-8b6e-f84f26d39059" d="m456.7,351.3h-11.21c-1.17,0-1.76-.64-1.76-1.76v-1.07c0-1.17.59-1.76,1.76-1.76h27.67c1.12,0,1.71.59,1.71,1.76v1.07c0,1.12-.59,1.76-1.71,1.76h-11.21v31.36c0,1.17-.65,1.76-1.77,1.76h-1.76c-1.12,0-1.71-.59-1.71-1.76v-31.36Z"/>
        <path class="uuid-dd52acce-d6a7-42a1-8b6e-f84f26d39059" d="m501.35,348.47c0-1.17.59-1.76,1.77-1.76h1.71c1.17,0,1.76.59,1.76,1.76v34.19c0,1.17-.59,1.76-1.76,1.76h-1.71c-1.18,0-1.77-.59-1.77-1.76v-34.19Z"/>
        <path class="uuid-dd52acce-d6a7-42a1-8b6e-f84f26d39059" d="m554.54,346.06c11.22,0,19.34,8.39,19.34,19.23s-8.12,19.76-19.34,19.76-19.39-8.65-19.39-19.76,8.18-19.23,19.39-19.23Zm0,34.14c8.01,0,13.89-6.46,13.89-14.9s-5.88-14.37-13.89-14.37-13.94,6.2-13.94,14.37,5.93,14.9,13.94,14.9Z"/>
        <path class="uuid-dd52acce-d6a7-42a1-8b6e-f84f26d39059" d="m602.45,348.47c0-1.17.59-1.76,1.77-1.76h2.03c1.02,0,1.6.32,2.14,1.17l16.08,23.34c1.33,2.03,3.1,5.45,3.1,5.45h.11s-.32-3.37-.32-5.45v-22.76c0-1.17.64-1.76,1.76-1.76h1.71c1.17,0,1.76.59,1.76,1.76v34.19c0,1.17-.59,1.76-1.76,1.76h-2.03c-.96,0-1.6-.32-2.09-1.17l-16.13-23.29c-1.34-2.08-3.1-5.5-3.1-5.5h-.11s.32,3.37.32,5.5v22.7c0,1.17-.59,1.76-1.76,1.76h-1.71c-1.18,0-1.77-.59-1.77-1.76v-34.19Z"/>
        <path class="uuid-dd52acce-d6a7-42a1-8b6e-f84f26d39059" d="m661.62,378.7l.91-1.28c.64-.85,1.39-.96,2.4-.32,1.33.96,4.22,3.05,8.22,3.05s6.63-2.14,6.63-5.4c0-8.33-18.16-6.46-18.16-18.22,0-6.36,5.34-10.47,12.24-10.47,4.48,0,8.01,1.77,9.45,2.89.91.64,1.02,1.44.53,2.4l-.75,1.34c-.64,1.12-1.5,1.01-2.4.48-1.45-.85-3.74-2.19-6.95-2.19-3.9,0-6.78,2.03-6.78,5.29,0,8.12,18.16,5.93,18.16,18.06,0,5.93-4.43,10.74-11.97,10.74-5.45,0-9.62-2.51-11.33-3.9-.69-.64-1.01-1.39-.21-2.46Z"/>
      </g>
      <g>
        <path class="uuid-dd52acce-d6a7-42a1-8b6e-f84f26d39059" d="m39.74,210.46c10.8,0,18.42,3.32,22.99,6.37,3.88,2.49,4.15,6.37,1.66,10.38l-2.35,3.6c-2.63,4.29-5.81,4.43-10.25,2.22-2.77-1.38-6.37-2.63-10.52-2.63-11.35,0-17.03,8.58-17.03,17.03s5.81,17.72,17.86,17.72c4.71,0,9.41-1.94,12.88-4.01,4.57-2.49,8.03-1.94,10.38,2.63l1.8,3.46c2.08,4.15,1.66,7.89-2.08,10.38-4.99,3.32-13.57,7.48-25.34,7.48-25.48,0-39.74-17.72-39.74-37.39s14.12-37.25,39.74-37.25Z"/>
        <path class="uuid-dd52acce-d6a7-42a1-8b6e-f84f26d39059" d="m77.4,192.05c0-4.98,2.63-7.62,7.62-7.62h8.72c4.98,0,7.61,2.63,7.61,7.62v23.68c0,3.6-.28,6.09-.28,6.09h.28c4.02-7.06,12.32-11.35,21.74-11.35,14.4,0,25.62,6.65,25.62,26.72v38.63c0,4.98-2.63,7.62-7.62,7.62h-8.72c-4.98,0-7.62-2.63-7.62-7.62v-34.2c0-6.65-2.63-9.42-7.89-9.42-10.38,0-15.51,8.17-15.51,19.11v24.51c0,4.98-2.63,7.62-7.61,7.62h-8.72c-4.99,0-7.62-2.63-7.62-7.62v-83.77Z"/>
        <path class="uuid-dd52acce-d6a7-42a1-8b6e-f84f26d39059" d="m161.87,219.74c0-4.98,2.63-7.62,7.62-7.62h8.72c4.98,0,7.61,2.63,7.61,7.62v56.08c0,4.98-2.63,7.62-7.61,7.62h-8.72c-4.98,0-7.62-2.63-7.62-7.62v-56.08Zm24.5-29.13c0,6.91-5.6,12.52-12.52,12.52s-12.52-5.6-12.52-12.52,5.6-12.52,12.52-12.52,12.52,5.6,12.52,12.52Z"/>
        <path class="uuid-dd52acce-d6a7-42a1-8b6e-f84f26d39059" d="m199.95,219.74c0-4.98,2.63-7.62,7.62-7.62h7.75c4.99,0,7.62,2.63,7.62,7.62v4.43c0,2.35-.28,4.43-.28,4.43h.28c2.35-7.34,9.97-17.17,18.97-17.17,4.85,0,6.51,2.63,6.51,7.62v7.75c0,4.98-2.63,7.62-7.62,7.62-11.35,0-16.89,9.69-16.89,21.32v20.08c0,4.98-2.63,7.62-7.62,7.62h-8.72c-4.98,0-7.62-2.63-7.62-7.62v-56.08Z"/>
        <path class="uuid-dd52acce-d6a7-42a1-8b6e-f84f26d39059" d="m291.48,210.46c22.57,0,40.57,15.09,40.57,37.52s-18,37.11-40.43,37.11-40.43-14.82-40.43-37.11,18-37.52,40.29-37.52Zm.14,54.69c8.72,0,16.2-6.51,16.2-17.17s-7.48-17.58-16.2-17.58-16.2,6.78-16.2,17.58,7.48,17.17,16.2,17.17Z"/>
        <path class="uuid-dd52acce-d6a7-42a1-8b6e-f84f26d39059" d="m342.3,219.74c0-4.98,2.63-7.62,7.62-7.62h6.23c4.98,0,7.62,2.63,7.62,6.23v1.52c0,.69-.14,1.38-.14,1.38h.28s6.51-10.8,21.6-10.8c19.39,0,32.12,15.23,32.12,37.39s-14.26,37.25-33.23,37.25c-12.88,0-18.14-8.17-18.14-8.17h-.28s.28,2.49.28,6.09v20.49c0,4.98-2.63,7.61-7.61,7.61h-8.72c-4.99,0-7.62-2.63-7.62-7.61v-83.77Zm37.25,45.55c7.48,0,13.98-6.09,13.98-17.03s-5.68-17.58-13.98-17.58c-7.2,0-13.98,5.26-13.98,17.58,0,8.58,4.57,17.03,13.98,17.03Z"/>
        <path class="uuid-dd52acce-d6a7-42a1-8b6e-f84f26d39059" d="m428.02,219.74c0-4.98,2.63-7.62,7.62-7.62h7.75c4.99,0,7.62,2.63,7.62,7.62v4.43c0,2.35-.28,4.43-.28,4.43h.28c2.35-7.34,9.97-17.17,18.97-17.17,4.85,0,6.51,2.63,6.51,7.62v7.75c0,4.98-2.63,7.62-7.62,7.62-11.35,0-16.89,9.69-16.89,21.32v20.08c0,4.98-2.63,7.62-7.61,7.62h-8.72c-4.98,0-7.62-2.63-7.62-7.62v-56.08Z"/>
        <path class="uuid-dd52acce-d6a7-42a1-8b6e-f84f26d39059" d="m518.3,238.99h2.08v-1.25c0-5.95-4.85-7.89-10.11-7.89-4.57,0-9.28,1.52-12.88,3.19-4.57,1.94-8.03,1.11-10.25-3.32l-1.66-3.46c-2.08-4.29-1.25-8.03,3.05-10.25,5.4-2.49,13.71-5.54,23.95-5.54,19.66,0,31.85,10.94,31.85,29.08v36.28c0,4.98-2.63,7.62-7.61,7.62h-6.65c-4.98,0-7.61-2.49-7.61-7.75v-.55c0-.83.14-1.39.14-1.39h-.28s-6.78,11.35-21.05,11.35-23.26-9.42-23.26-21.74c0-19.11,22.71-24.37,40.29-24.37Zm-9.83,28.25c6.92,0,12.18-6.78,12.18-12.6v-1.94h-2.22c-7.34,0-16.75,1.94-16.75,8.45,0,3.32,2.35,6.09,6.79,6.09Z"/>
        <path class="uuid-dd52acce-d6a7-42a1-8b6e-f84f26d39059" d="m593.07,210.46c10.8,0,18.42,3.32,22.99,6.37,3.88,2.49,4.15,6.37,1.66,10.38l-2.35,3.6c-2.63,4.29-5.81,4.43-10.25,2.22-2.77-1.38-6.37-2.63-10.52-2.63-11.35,0-17.03,8.58-17.03,17.03s5.81,17.72,17.86,17.72c4.71,0,9.41-1.94,12.88-4.01,4.57-2.49,8.03-1.94,10.38,2.63l1.8,3.46c2.08,4.15,1.66,7.89-2.08,10.38-4.99,3.32-13.57,7.48-25.34,7.48-25.48,0-39.74-17.72-39.74-37.39s14.12-37.25,39.74-37.25Z"/>
        <path class="uuid-dd52acce-d6a7-42a1-8b6e-f84f26d39059" d="m635.45,232.06h-2.08c-4.85,0-7.48-2.63-7.48-7.62v-3.46c0-4.98,2.63-7.62,7.61-7.62h2.63v-12.88c0-4.99,2.63-7.62,7.62-7.62h8.03c4.98,0,7.62,2.63,7.62,7.62v12.88h7.34c4.98,0,7.61,2.63,7.61,7.62v3.46c0,4.98-2.63,7.62-7.48,7.62h-7.48v21.6c0,6.09,4.01,8.45,8.31,9,5.54.69,7.62,2.35,7.62,7.61v6.23c0,5.68-3.46,7.62-9.83,7.62-10.52,0-30.05-4.85-30.05-26.03v-26.03Z"/>
        <path class="uuid-dd52acce-d6a7-42a1-8b6e-f84f26d39059" d="m759.65,210.46c10.8,0,18.42,3.32,22.99,6.37,3.88,2.49,4.15,6.37,1.66,10.38l-2.35,3.6c-2.63,4.29-5.81,4.43-10.25,2.22-2.77-1.38-6.37-2.63-10.52-2.63-11.35,0-17.03,8.58-17.03,17.03s5.81,17.72,17.86,17.72c4.71,0,9.41-1.94,12.88-4.01,4.57-2.49,8.03-1.94,10.38,2.63l1.8,3.46c2.08,4.15,1.66,7.89-2.08,10.38-4.99,3.32-13.57,7.48-25.34,7.48-25.48,0-39.74-17.72-39.74-37.39s14.12-37.25,39.74-37.25Z"/>
        <path class="uuid-dd52acce-d6a7-42a1-8b6e-f84f26d39059" d="m685.85,219.74c0-4.98,2.63-7.62,7.62-7.62h8.72c4.98,0,7.61,2.63,7.61,7.62v56.08c0,4.98-2.63,7.62-7.61,7.62h-8.72c-4.98,0-7.62-2.63-7.62-7.62v-56.08Zm24.5-29.13c0,6.91-5.6,12.52-12.52,12.52s-12.52-5.6-12.52-12.52,5.6-12.52,12.52-12.52,12.52,5.6,12.52,12.52Z"/>
      </g>
    </g>
  </g>
</svg>